<svg width="26" height="26" viewBox="0 0 26 26" fill="none" xmlns="http://www.w3.org/2000/svg">
<rect width="26" height="26" fill="#B8B8B8"/>
<g clip-path="url(#clip0_0_1)">
<rect width="1366" height="5889" transform="translate(-360 -5830)" fill="white"/>
<rect x="-360" y="-49" width="1366" height="108" fill="#030A1A"/>
<path d="M12.784 22.26C11.3974 22.26 10.3487 21.87 9.63802 21.09C8.92735 20.2927 8.57202 19.1573 8.57202 17.684V16.644H11.276V17.892C11.276 19.0707 11.77 19.66 12.758 19.66C13.2434 19.66 13.6074 19.5213 13.85 19.244C14.11 18.9493 14.24 18.4813 14.24 17.84C14.24 17.0773 14.0667 16.41 13.72 15.838C13.3734 15.2487 12.732 14.5467 11.796 13.732C10.6174 12.692 9.79402 11.756 9.32602 10.924C8.85802 10.0747 8.62402 9.12137 8.62402 8.06404C8.62402 6.62537 8.98802 5.51604 9.71602 4.73604C10.444 3.93871 11.5014 3.54004 12.888 3.54004C14.2574 3.54004 15.2887 3.93871 15.982 4.73604C16.6927 5.51604 17.048 6.64271 17.048 8.11604V8.87004H14.344V7.93404C14.344 7.31004 14.2227 6.85937 13.98 6.58204C13.7374 6.28737 13.382 6.14004 12.914 6.14004C11.9607 6.14004 11.484 6.72071 11.484 7.88204C11.484 8.54071 11.6574 9.15604 12.004 9.72804C12.368 10.3 13.018 10.9934 13.954 11.808C15.15 12.848 15.9734 13.7927 16.424 14.642C16.8747 15.4913 17.1 16.488 17.1 17.632C17.1 19.1227 16.7274 20.2667 15.982 21.064C15.254 21.8613 14.188 22.26 12.784 22.26Z" fill="white"/>
</g>
<defs>
<clipPath id="clip0_0_1">
<rect width="1366" height="5889" fill="white" transform="translate(-360 -5830)"/>
</clipPath>
</defs>
</svg>
